<?xml version="1.0" standalone="no"?>
<svg xmlns="http://www.w3.org/2000/svg" width="2000" height="2000" viewBox="0 0 2000 2000"><defs><clipPath id="clip-path-dot-color"><path d="M 109 541v 54h 54v -27a 27 27, 0, 0, 0, -27 -27" transform="rotate(-90,136,568)"/><rect x="109" y="595" width="54" height="54" transform="rotate(0,136,622)"/><path d="M 109 649v 54h 27a 27 27, 0, 0, 0, 0 -54" transform="rotate(90,136,676)"/><path d="M 109 757v 54h 54v -27a 27 27, 0, 0, 0, -27 -27" transform="rotate(-90,136,784)"/><path d="M 109 811v 54h 27a 27 27, 0, 0, 0, 0 -54" transform="rotate(90,136,838)"/><path d="M 109 973v 54h 27a 27 27, 0, 0, 0, 0 -54" transform="rotate(180,136,1000)"/><circle cx="136" cy="1216" r="27" transform="rotate(0,136,1216)"/><path d="M 109 1351v 54h 27a 27 27, 0, 0, 0, 0 -54" transform="rotate(-90,136,1378)"/><path d="M 109 1405v 54h 54v -27a 27 27, 0, 0, 0, -27 -27" transform="rotate(180,136,1432)"/><rect x="163" y="541" width="54" height="54" transform="rotate(0,190,568)"/><path d="M 163 595v 54h 54v -27a 27 27, 0, 0, 0, -27 -27" transform="rotate(90,190,622)"/><rect x="163" y="757" width="54" height="54" transform="rotate(0,190,784)"/><path d="M 163 919v 54h 54v -27a 27 27, 0, 0, 0, -27 -27" transform="rotate(-90,190,946)"/><path d="M 163 973v 54h 54v -27a 27 27, 0, 0, 0, -27 -27" transform="rotate(90,190,1000)"/><path d="M 163 1081v 54h 27a 27 27, 0, 0, 0, 0 -54" transform="rotate(-90,190,1108)"/><path d="M 163 1135v 54h 27a 27 27, 0, 0, 0, 0 -54" transform="rotate(90,190,1162)"/><path d="M 163 1297v 54h 27a 27 27, 0, 0, 0, 0 -54" transform="rotate(180,190,1324)"/><rect x="163" y="1405" width="54" height="54" transform="rotate(0,190,1432)"/><path d="M 217 541v 54h 27a 27 27, 0, 0, 0, 0 -54" transform="rotate(0,244,568)"/><path d="M 217 703v 54h 27a 27 27, 0, 0, 0, 0 -54" transform="rotate(-90,244,730)"/><path d="M 217 757v 54h 54v -27a 27 27, 0, 0, 0, -27 -27" transform="rotate(90,244,784)"/><rect x="217" y="919" width="54" height="54" transform="rotate(0,244,946)"/><circle cx="244" cy="1054" r="27" transform="rotate(0,244,1054)"/><path d="M 217 1189v 54h 27a 27 27, 0, 0, 0, 0 -54" transform="rotate(-90,244,1216)"/><rect x="217" y="1243" width="54" height="54" transform="rotate(0,244,1270)"/><rect x="217" y="1297" width="54" height="54" transform="rotate(0,244,1324)"/><rect x="217" y="1351" width="54" height="54" transform="rotate(0,244,1378)"/><path d="M 217 1405v 54h 54v -27a 27 27, 0, 0, 0, -27 -27" transform="rotate(90,244,1432)"/><path d="M 271 811v 54h 54v -27a 27 27, 0, 0, 0, -27 -27" transform="rotate(-90,298,838)"/><rect x="271" y="865" width="54" height="54" transform="rotate(0,298,892)"/><rect x="271" y="919" width="54" height="54" transform="rotate(0,298,946)"/><path d="M 271 1351v 54h 27a 27 27, 0, 0, 0, 0 -54" transform="rotate(0,298,1378)"/><path d="M 325 595v 54h 27a 27 27, 0, 0, 0, 0 -54" transform="rotate(180,352,622)"/><path d="M 325 757v 54h 27a 27 27, 0, 0, 0, 0 -54" transform="rotate(-90,352,784)"/><rect x="325" y="811" width="54" height="54" transform="rotate(0,352,838)"/><rect x="325" y="865" width="54" height="54" transform="rotate(0,352,892)"/><path d="M 325 919v 54h 54v -27a 27 27, 0, 0, 0, -27 -27" transform="rotate(90,352,946)"/><circle cx="352" cy="1054" r="27" transform="rotate(0,352,1054)"/><path d="M 325 1135v 54h 27a 27 27, 0, 0, 0, 0 -54" transform="rotate(180,352,1162)"/><circle cx="352" cy="1270" r="27" transform="rotate(0,352,1270)"/><circle cx="352" cy="1432" r="27" transform="rotate(0,352,1432)"/><path d="M 379 541v 54h 54v -27a 27 27, 0, 0, 0, -27 -27" transform="rotate(-90,406,568)"/><rect x="379" y="595" width="54" height="54" transform="rotate(0,406,622)"/><path d="M 379 649v 54h 54v -27a 27 27, 0, 0, 0, -27 -27" transform="rotate(180,406,676)"/><path d="M 379 811v 54h 54v -27a 27 27, 0, 0, 0, -27 -27" transform="rotate(0,406,838)"/><rect x="379" y="865" width="54" height="54" transform="rotate(0,406,892)"/><path d="M 379 973v 54h 27a 27 27, 0, 0, 0, 0 -54" transform="rotate(180,406,1000)"/><path d="M 379 1081v 54h 54v -27a 27 27, 0, 0, 0, -27 -27" transform="rotate(-90,406,1108)"/><path d="M 379 1135v 54h 54v -27a 27 27, 0, 0, 0, -27 -27" transform="rotate(90,406,1162)"/><path d="M 379 1297v 54h 27a 27 27, 0, 0, 0, 0 -54" transform="rotate(180,406,1324)"/><rect x="433" y="541" width="54" height="54" transform="rotate(0,460,568)"/><path d="M 433 649v 54h 27a 27 27, 0, 0, 0, 0 -54" transform="rotate(0,460,676)"/><circle cx="460" cy="784" r="27" transform="rotate(0,460,784)"/><rect x="433" y="865" width="54" height="54" transform="rotate(0,460,892)"/><path d="M 433 973v 54h 27a 27 27, 0, 0, 0, 0 -54" transform="rotate(0,460,1000)"/><rect x="433" y="1081" width="54" height="54" transform="rotate(0,460,1108)"/><path d="M 433 1189v 54h 27a 27 27, 0, 0, 0, 0 -54" transform="rotate(180,460,1216)"/><rect x="433" y="1297" width="54" height="54" transform="rotate(0,460,1324)"/><path d="M 433 1405v 54h 27a 27 27, 0, 0, 0, 0 -54" transform="rotate(180,460,1432)"/><rect x="487" y="541" width="54" height="54" transform="rotate(0,514,568)"/><path d="M 487 865v 54h 54v -27a 27 27, 0, 0, 0, -27 -27" transform="rotate(0,514,892)"/><path d="M 487 919v 54h 27a 27 27, 0, 0, 0, 0 -54" transform="rotate(90,514,946)"/><path d="M 487 1027v 54h 27a 27 27, 0, 0, 0, 0 -54" transform="rotate(-90,514,1054)"/><rect x="487" y="1081" width="54" height="54" transform="rotate(0,514,1108)"/><path d="M 487 1189v 54h 54v -27a 27 27, 0, 0, 0, -27 -27" transform="rotate(0,514,1216)"/><rect x="487" y="1243" width="54" height="54" transform="rotate(0,514,1270)"/><rect x="487" y="1297" width="54" height="54" transform="rotate(0,514,1324)"/><path d="M 487 1405v 54h 27a 27 27, 0, 0, 0, 0 -54" transform="rotate(0,514,1432)"/><path d="M 541 217v 54h 54v -27a 27 27, 0, 0, 0, -27 -27" transform="rotate(-90,568,244)"/><rect x="541" y="271" width="54" height="54" transform="rotate(0,568,298)"/><path d="M 541 325v 54h 54v -27a 27 27, 0, 0, 0, -27 -27" transform="rotate(180,568,352)"/><circle cx="568" cy="460" r="27" transform="rotate(0,568,460)"/><path d="M 541 541v 54h 27a 27 27, 0, 0, 0, 0 -54" transform="rotate(0,568,568)"/><circle cx="568" cy="676" r="27" transform="rotate(0,568,676)"/><path d="M 541 811v 54h 27a 27 27, 0, 0, 0, 0 -54" transform="rotate(180,568,838)"/><path d="M 541 973v 54h 27a 27 27, 0, 0, 0, 0 -54" transform="rotate(180,568,1000)"/><path d="M 541 1081v 54h 54v -27a 27 27, 0, 0, 0, -27 -27" transform="rotate(0,568,1108)"/><path d="M 541 1135v 54h 54v -27a 27 27, 0, 0, 0, -27 -27" transform="rotate(180,568,1162)"/><path d="M 541 1243v 54h 54v -27a 27 27, 0, 0, 0, -27 -27" transform="rotate(0,568,1270)"/><rect x="541" y="1297" width="54" height="54" transform="rotate(0,568,1324)"/><path d="M 541 1459v 54h 54v -27a 27 27, 0, 0, 0, -27 -27" transform="rotate(-90,568,1486)"/><rect x="541" y="1513" width="54" height="54" transform="rotate(0,568,1540)"/><path d="M 541 1567v 54h 27a 27 27, 0, 0, 0, 0 -54" transform="rotate(90,568,1594)"/><path d="M 541 1729v 54h 54v -27a 27 27, 0, 0, 0, -27 -27" transform="rotate(-90,568,1756)"/><rect x="541" y="1783" width="54" height="54" transform="rotate(0,568,1810)"/><path d="M 541 1837v 54h 54v -27a 27 27, 0, 0, 0, -27 -27" transform="rotate(180,568,1864)"/><path d="M 595 109v 54h 27a 27 27, 0, 0, 0, 0 -54" transform="rotate(180,622,136)"/><path d="M 595 217v 54h 54v -27a 27 27, 0, 0, 0, -27 -27" transform="rotate(0,622,244)"/><rect x="595" y="271" width="54" height="54" transform="rotate(0,622,298)"/><rect x="595" y="325" width="54" height="54" transform="rotate(0,622,352)"/><path d="M 595 379v 54h 54v -27a 27 27, 0, 0, 0, -27 -27" transform="rotate(180,622,406)"/><circle cx="622" cy="730" r="27" transform="rotate(0,622,730)"/><rect x="595" y="811" width="54" height="54" transform="rotate(0,622,838)"/><path d="M 595 973v 54h 54v -27a 27 27, 0, 0, 0, -27 -27" transform="rotate(0,622,1000)"/><path d="M 595 1027v 54h 27a 27 27, 0, 0, 0, 0 -54" transform="rotate(90,622,1054)"/><path d="M 595 1135v 54h 27a 27 27, 0, 0, 0, 0 -54" transform="rotate(0,622,1162)"/><rect x="595" y="1297" width="54" height="54" transform="rotate(0,622,1324)"/><rect x="595" y="1351" width="54" height="54" transform="rotate(0,622,1378)"/><rect x="595" y="1405" width="54" height="54" transform="rotate(0,622,1432)"/><rect x="595" y="1459" width="54" height="54" transform="rotate(0,622,1486)"/><rect x="595" y="1513" width="54" height="54" transform="rotate(0,622,1540)"/><path d="M 595 1675v 54h 54v -27a 27 27, 0, 0, 0, -27 -27" transform="rotate(-90,622,1702)"/><rect x="595" y="1729" width="54" height="54" transform="rotate(0,622,1756)"/><rect x="595" y="1783" width="54" height="54" transform="rotate(0,622,1810)"/><path d="M 595 1837v 54h 54v -27a 27 27, 0, 0, 0, -27 -27" transform="rotate(90,622,1864)"/><rect x="649" y="109" width="54" height="54" transform="rotate(0,676,136)"/><rect x="649" y="271" width="54" height="54" transform="rotate(0,676,298)"/><rect x="649" y="325" width="54" height="54" transform="rotate(0,676,352)"/><rect x="649" y="379" width="54" height="54" transform="rotate(0,676,406)"/><rect x="649" y="433" width="54" height="54" transform="rotate(0,676,460)"/><rect x="649" y="487" width="54" height="54" transform="rotate(0,676,514)"/><rect x="649" y="541" width="54" height="54" transform="rotate(0,676,568)"/><rect x="649" y="595" width="54" height="54" transform="rotate(0,676,622)"/><path d="M 649 649v 54h 54v -27a 27 27, 0, 0, 0, -27 -27" transform="rotate(180,676,676)"/><path d="M 649 757v 54h 27a 27 27, 0, 0, 0, 0 -54" transform="rotate(-90,676,784)"/><rect x="649" y="811" width="54" height="54" transform="rotate(0,676,838)"/><path d="M 649 865v 54h 54v -27a 27 27, 0, 0, 0, -27 -27" transform="rotate(180,676,892)"/><path d="M 649 1297v 54h 27a 27 27, 0, 0, 0, 0 -54" transform="rotate(0,676,1324)"/><path d="M 649 1513v 54h 54v -27a 27 27, 0, 0, 0, -27 -27" transform="rotate(0,676,1540)"/><path d="M 649 1567v 54h 27a 27 27, 0, 0, 0, 0 -54" transform="rotate(90,676,1594)"/><rect x="649" y="1675" width="54" height="54" transform="rotate(0,676,1702)"/><rect x="649" y="1783" width="54" height="54" transform="rotate(0,676,1810)"/><rect x="703" y="109" width="54" height="54" transform="rotate(0,730,136)"/><rect x="703" y="271" width="54" height="54" transform="rotate(0,730,298)"/><rect x="703" y="487" width="54" height="54" transform="rotate(0,730,514)"/><rect x="703" y="595" width="54" height="54" transform="rotate(0,730,622)"/><rect x="703" y="649" width="54" height="54" transform="rotate(0,730,676)"/><path d="M 703 703v 54h 27a 27 27, 0, 0, 0, 0 -54" transform="rotate(90,730,730)"/><rect x="703" y="811" width="54" height="54" transform="rotate(0,730,838)"/><rect x="703" y="865" width="54" height="54" transform="rotate(0,730,892)"/><path d="M 703 919v 54h 54v -27a 27 27, 0, 0, 0, -27 -27" transform="rotate(180,730,946)"/><path d="M 703 1081v 54h 54v -27a 27 27, 0, 0, 0, -27 -27" transform="rotate(-90,730,1108)"/><rect x="703" y="1135" width="54" height="54" transform="rotate(0,730,1162)"/><path d="M 703 1189v 54h 54v -27a 27 27, 0, 0, 0, -27 -27" transform="rotate(180,730,1216)"/><path d="M 703 1405v 54h 54v -27a 27 27, 0, 0, 0, -27 -27" transform="rotate(-90,730,1432)"/><path d="M 703 1459v 54h 27a 27 27, 0, 0, 0, 0 -54" transform="rotate(90,730,1486)"/><rect x="703" y="1675" width="54" height="54" transform="rotate(0,730,1702)"/><rect x="703" y="1729" width="54" height="54" transform="rotate(0,730,1756)"/><path d="M 703 1783v 54h 54v -27a 27 27, 0, 0, 0, -27 -27" transform="rotate(90,730,1810)"/><path d="M 757 109v 54h 27a 27 27, 0, 0, 0, 0 -54" transform="rotate(0,784,136)"/><path d="M 757 271v 54h 54v -27a 27 27, 0, 0, 0, -27 -27" transform="rotate(0,784,298)"/><rect x="757" y="325" width="54" height="54" transform="rotate(0,784,352)"/><rect x="757" y="379" width="54" height="54" transform="rotate(0,784,406)"/><rect x="757" y="433" width="54" height="54" transform="rotate(0,784,460)"/><rect x="757" y="487" width="54" height="54" transform="rotate(0,784,514)"/><rect x="757" y="595" width="54" height="54" transform="rotate(0,784,622)"/><path d="M 757 757v 54h 54v -27a 27 27, 0, 0, 0, -27 -27" transform="rotate(-90,784,784)"/><rect x="757" y="811" width="54" height="54" transform="rotate(0,784,838)"/><rect x="757" y="865" width="54" height="54" transform="rotate(0,784,892)"/><path d="M 757 919v 54h 54v -27a 27 27, 0, 0, 0, -27 -27" transform="rotate(90,784,946)"/><path d="M 757 1081v 54h 27a 27 27, 0, 0, 0, 0 -54" transform="rotate(0,784,1108)"/><path d="M 757 1189v 54h 54v -27a 27 27, 0, 0, 0, -27 -27" transform="rotate(0,784,1216)"/><rect x="757" y="1243" width="54" height="54" transform="rotate(0,784,1270)"/><rect x="757" y="1297" width="54" height="54" transform="rotate(0,784,1324)"/><rect x="757" y="1351" width="54" height="54" transform="rotate(0,784,1378)"/><path d="M 757 1405v 54h 54v -27a 27 27, 0, 0, 0, -27 -27" transform="rotate(90,784,1432)"/><circle cx="784" cy="1594" r="27" transform="rotate(0,784,1594)"/><rect x="757" y="1675" width="54" height="54" transform="rotate(0,784,1702)"/><path d="M 811 163v 54h 54v -27a 27 27, 0, 0, 0, -27 -27" transform="rotate(-90,838,190)"/><path d="M 811 217v 54h 54v -27a 27 27, 0, 0, 0, -27 -27" transform="rotate(180,838,244)"/><path d="M 811 379v 54h 27a 27 27, 0, 0, 0, 0 -54" transform="rotate(0,838,406)"/><path d="M 811 487v 54h 27a 27 27, 0, 0, 0, 0 -54" transform="rotate(0,838,514)"/><rect x="811" y="595" width="54" height="54" transform="rotate(0,838,622)"/><rect x="811" y="757" width="54" height="54" transform="rotate(0,838,784)"/><rect x="811" y="865" width="54" height="54" transform="rotate(0,838,892)"/><path d="M 811 973v 54h 27a 27 27, 0, 0, 0, 0 -54" transform="rotate(-90,838,1000)"/><path d="M 811 1027v 54h 27a 27 27, 0, 0, 0, 0 -54" transform="rotate(90,838,1054)"/><path d="M 811 1351v 54h 27a 27 27, 0, 0, 0, 0 -54" transform="rotate(0,838,1378)"/><path d="M 811 1513v 54h 27a 27 27, 0, 0, 0, 0 -54" transform="rotate(180,838,1540)"/><path d="M 811 1621v 54h 54v -27a 27 27, 0, 0, 0, -27 -27" transform="rotate(-90,838,1648)"/><path d="M 811 1675v 54h 54v -27a 27 27, 0, 0, 0, -27 -27" transform="rotate(90,838,1702)"/><circle cx="838" cy="1864" r="27" transform="rotate(0,838,1864)"/><rect x="865" y="163" width="54" height="54" transform="rotate(0,892,190)"/><path d="M 865 217v 54h 54v -27a 27 27, 0, 0, 0, -27 -27" transform="rotate(90,892,244)"/><path d="M 865 325v 54h 27a 27 27, 0, 0, 0, 0 -54" transform="rotate(180,892,352)"/><circle cx="892" cy="460" r="27" transform="rotate(0,892,460)"/><path d="M 865 541v 54h 27a 27 27, 0, 0, 0, 0 -54" transform="rotate(-90,892,568)"/><rect x="865" y="595" width="54" height="54" transform="rotate(0,892,622)"/><path d="M 865 703v 54h 54v -27a 27 27, 0, 0, 0, -27 -27" transform="rotate(-90,892,730)"/><rect x="865" y="757" width="54" height="54" transform="rotate(0,892,784)"/><rect x="865" y="811" width="54" height="54" transform="rotate(0,892,838)"/><rect x="865" y="865" width="54" height="54" transform="rotate(0,892,892)"/><path d="M 865 1297v 54h 27a 27 27, 0, 0, 0, 0 -54" transform="rotate(180,892,1324)"/><path d="M 865 1459v 54h 54v -27a 27 27, 0, 0, 0, -27 -27" transform="rotate(-90,892,1486)"/><rect x="865" y="1513" width="54" height="54" transform="rotate(0,892,1540)"/><rect x="865" y="1567" width="54" height="54" transform="rotate(0,892,1594)"/><rect x="865" y="1621" width="54" height="54" transform="rotate(0,892,1648)"/><circle cx="892" cy="1810" r="27" transform="rotate(0,892,1810)"/><path d="M 919 109v 54h 27a 27 27, 0, 0, 0, 0 -54" transform="rotate(-90,946,136)"/><rect x="919" y="163" width="54" height="54" transform="rotate(0,946,190)"/><path d="M 919 271v 54h 54v -27a 27 27, 0, 0, 0, -27 -27" transform="rotate(-90,946,298)"/><rect x="919" y="325" width="54" height="54" transform="rotate(0,946,352)"/><path d="M 919 379v 54h 54v -27a 27 27, 0, 0, 0, -27 -27" transform="rotate(180,946,406)"/><rect x="919" y="595" width="54" height="54" transform="rotate(0,946,622)"/><rect x="919" y="649" width="54" height="54" transform="rotate(0,946,676)"/><rect x="919" y="703" width="54" height="54" transform="rotate(0,946,730)"/><rect x="919" y="757" width="54" height="54" transform="rotate(0,946,784)"/><rect x="919" y="811" width="54" height="54" transform="rotate(0,946,838)"/><rect x="919" y="865" width="54" height="54" transform="rotate(0,946,892)"/><path d="M 919 1081v 54h 27a 27 27, 0, 0, 0, 0 -54" transform="rotate(180,946,1108)"/><path d="M 919 1243v 54h 27a 27 27, 0, 0, 0, 0 -54" transform="rotate(-90,946,1270)"/><path d="M 919 1297v 54h 54v -27a 27 27, 0, 0, 0, -27 -27" transform="rotate(90,946,1324)"/><path d="M 919 1405v 54h 27a 27 27, 0, 0, 0, 0 -54" transform="rotate(-90,946,1432)"/><rect x="919" y="1459" width="54" height="54" transform="rotate(0,946,1486)"/><path d="M 919 1621v 54h 54v -27a 27 27, 0, 0, 0, -27 -27" transform="rotate(0,946,1648)"/><path d="M 919 1675v 54h 27a 27 27, 0, 0, 0, 0 -54" transform="rotate(90,946,1702)"/><path d="M 919 1837v 54h 27a 27 27, 0, 0, 0, 0 -54" transform="rotate(180,946,1864)"/><path d="M 973 163v 54h 27a 27 27, 0, 0, 0, 0 -54" transform="rotate(0,1000,190)"/><path d="M 973 271v 54h 27a 27 27, 0, 0, 0, 0 -54" transform="rotate(0,1000,298)"/><rect x="973" y="379" width="54" height="54" transform="rotate(0,1000,406)"/><path d="M 973 433v 54h 27a 27 27, 0, 0, 0, 0 -54" transform="rotate(90,1000,460)"/><path d="M 973 595v 54h 27a 27 27, 0, 0, 0, 0 -54" transform="rotate(0,1000,622)"/><path d="M 973 703v 54h 54v -27a 27 27, 0, 0, 0, -27 -27" transform="rotate(0,1000,730)"/><rect x="973" y="757" width="54" height="54" transform="rotate(0,1000,784)"/><rect x="973" y="811" width="54" height="54" transform="rotate(0,1000,838)"/><path d="M 973 865v 54h 54v -27a 27 27, 0, 0, 0, -27 -27" transform="rotate(90,1000,892)"/><path d="M 973 973v 54h 54v -27a 27 27, 0, 0, 0, -27 -27" transform="rotate(-90,1000,1000)"/><rect x="973" y="1027" width="54" height="54" transform="rotate(0,1000,1054)"/><rect x="973" y="1081" width="54" height="54" transform="rotate(0,1000,1108)"/><path d="M 973 1135v 54h 54v -27a 27 27, 0, 0, 0, -27 -27" transform="rotate(180,1000,1162)"/><path d="M 973 1351v 54h 27a 27 27, 0, 0, 0, 0 -54" transform="rotate(180,1000,1378)"/><path d="M 973 1459v 54h 27a 27 27, 0, 0, 0, 0 -54" transform="rotate(0,1000,1486)"/><circle cx="1000" cy="1594" r="27" transform="rotate(0,1000,1594)"/><circle cx="1000" cy="1756" r="27" transform="rotate(0,1000,1756)"/><path d="M 973 1837v 54h 27a 27 27, 0, 0, 0, 0 -54" transform="rotate(0,1000,1864)"/><circle cx="1054" cy="244" r="27" transform="rotate(0,1054,244)"/><path d="M 1027 379v 54h 27a 27 27, 0, 0, 0, 0 -54" transform="rotate(0,1054,406)"/><circle cx="1054" cy="514" r="27" transform="rotate(0,1054,514)"/><path d="M 1027 649v 54h 27a 27 27, 0, 0, 0, 0 -54" transform="rotate(180,1054,676)"/><path d="M 1027 757v 54h 54v -27a 27 27, 0, 0, 0, -27 -27" transform="rotate(0,1054,784)"/><path d="M 1027 811v 54h 54v -27a 27 27, 0, 0, 0, -27 -27" transform="rotate(90,1054,838)"/><path d="M 1027 973v 54h 54v -27a 27 27, 0, 0, 0, -27 -27" transform="rotate(0,1054,1000)"/><rect x="1027" y="1027" width="54" height="54" transform="rotate(0,1054,1054)"/><rect x="1027" y="1135" width="54" height="54" transform="rotate(0,1054,1162)"/><path d="M 1027 1189v 54h 27a 27 27, 0, 0, 0, 0 -54" transform="rotate(90,1054,1216)"/><path d="M 1027 1351v 54h 54v -27a 27 27, 0, 0, 0, -27 -27" transform="rotate(0,1054,1378)"/><path d="M 1027 1405v 54h 27a 27 27, 0, 0, 0, 0 -54" transform="rotate(90,1054,1432)"/><path d="M 1081 109v 54h 27a 27 27, 0, 0, 0, 0 -54" transform="rotate(180,1108,136)"/><path d="M 1081 325v 54h 27a 27 27, 0, 0, 0, 0 -54" transform="rotate(180,1108,352)"/><circle cx="1108" cy="460" r="27" transform="rotate(0,1108,460)"/><path d="M 1081 541v 54h 27a 27 27, 0, 0, 0, 0 -54" transform="rotate(180,1108,568)"/><path d="M 1081 649v 54h 54v -27a 27 27, 0, 0, 0, -27 -27" transform="rotate(0,1108,676)"/><path d="M 1081 703v 54h 27a 27 27, 0, 0, 0, 0 -54" transform="rotate(90,1108,730)"/><path d="M 1081 865v 54h 27a 27 27, 0, 0, 0, 0 -54" transform="rotate(180,1108,892)"/><path d="M 1081 1027v 54h 27a 27 27, 0, 0, 0, 0 -54" transform="rotate(0,1108,1054)"/><path d="M 1081 1135v 54h 27a 27 27, 0, 0, 0, 0 -54" transform="rotate(0,1108,1162)"/><path d="M 1081 1297v 54h 27a 27 27, 0, 0, 0, 0 -54" transform="rotate(180,1108,1324)"/><path d="M 1081 1567v 54h 54v -27a 27 27, 0, 0, 0, -27 -27" transform="rotate(-90,1108,1594)"/><path d="M 1081 1621v 54h 27a 27 27, 0, 0, 0, 0 -54" transform="rotate(90,1108,1648)"/><path d="M 1081 1729v 54h 27a 27 27, 0, 0, 0, 0 -54" transform="rotate(180,1108,1756)"/><rect x="1135" y="109" width="54" height="54" transform="rotate(0,1162,136)"/><path d="M 1135 217v 54h 27a 27 27, 0, 0, 0, 0 -54" transform="rotate(180,1162,244)"/><rect x="1135" y="325" width="54" height="54" transform="rotate(0,1162,352)"/><path d="M 1135 541v 54h 54v -27a 27 27, 0, 0, 0, -27 -27" transform="rotate(0,1162,568)"/><path d="M 1135 595v 54h 54v -27a 27 27, 0, 0, 0, -27 -27" transform="rotate(180,1162,622)"/><circle cx="1162" cy="784" r="27" transform="rotate(0,1162,784)"/><path d="M 1135 865v 54h 54v -27a 27 27, 0, 0, 0, -27 -27" transform="rotate(0,1162,892)"/><rect x="1135" y="919" width="54" height="54" transform="rotate(0,1162,946)"/><path d="M 1135 973v 54h 27a 27 27, 0, 0, 0, 0 -54" transform="rotate(90,1162,1000)"/><circle cx="1162" cy="1108" r="27" transform="rotate(0,1162,1108)"/><path d="M 1135 1189v 54h 27a 27 27, 0, 0, 0, 0 -54" transform="rotate(-90,1162,1216)"/><rect x="1135" y="1243" width="54" height="54" transform="rotate(0,1162,1270)"/><rect x="1135" y="1297" width="54" height="54" transform="rotate(0,1162,1324)"/><rect x="1135" y="1351" width="54" height="54" transform="rotate(0,1162,1378)"/><rect x="1135" y="1405" width="54" height="54" transform="rotate(0,1162,1432)"/><path d="M 1135 1459v 54h 27a 27 27, 0, 0, 0, 0 -54" transform="rotate(90,1162,1486)"/><path d="M 1135 1567v 54h 27a 27 27, 0, 0, 0, 0 -54" transform="rotate(0,1162,1594)"/><path d="M 1135 1675v 54h 54v -27a 27 27, 0, 0, 0, -27 -27" transform="rotate(-90,1162,1702)"/><path d="M 1135 1729v 54h 54v -27a 27 27, 0, 0, 0, -27 -27" transform="rotate(90,1162,1756)"/><path d="M 1135 1837v 54h 27a 27 27, 0, 0, 0, 0 -54" transform="rotate(180,1162,1864)"/><rect x="1189" y="109" width="54" height="54" transform="rotate(0,1216,136)"/><path d="M 1189 217v 54h 54v -27a 27 27, 0, 0, 0, -27 -27" transform="rotate(0,1216,244)"/><rect x="1189" y="271" width="54" height="54" transform="rotate(0,1216,298)"/><rect x="1189" y="325" width="54" height="54" transform="rotate(0,1216,352)"/><rect x="1189" y="379" width="54" height="54" transform="rotate(0,1216,406)"/><rect x="1189" y="433" width="54" height="54" transform="rotate(0,1216,460)"/><path d="M 1189 487v 54h 54v -27a 27 27, 0, 0, 0, -27 -27" transform="rotate(180,1216,514)"/><rect x="1189" y="595" width="54" height="54" transform="rotate(0,1216,622)"/><path d="M 1189 703v 54h 27a 27 27, 0, 0, 0, 0 -54" transform="rotate(180,1216,730)"/><circle cx="1216" cy="1054" r="27" transform="rotate(0,1216,1054)"/><rect x="1189" y="1243" width="54" height="54" transform="rotate(0,1216,1270)"/><path d="M 1189 1297v 54h 54v -27a 27 27, 0, 0, 0, -27 -27" transform="rotate(90,1216,1324)"/><path d="M 1189 1405v 54h 27a 27 27, 0, 0, 0, 0 -54" transform="rotate(0,1216,1432)"/><path d="M 1189 1621v 54h 27a 27 27, 0, 0, 0, 0 -54" transform="rotate(-90,1216,1648)"/><path d="M 1189 1675v 54h 54v -27a 27 27, 0, 0, 0, -27 -27" transform="rotate(90,1216,1702)"/><rect x="1189" y="1837" width="54" height="54" transform="rotate(0,1216,1864)"/><rect x="1243" y="109" width="54" height="54" transform="rotate(0,1270,136)"/><path d="M 1243 163v 54h 27a 27 27, 0, 0, 0, 0 -54" transform="rotate(90,1270,190)"/><rect x="1243" y="271" width="54" height="54" transform="rotate(0,1270,298)"/><path d="M 1243 379v 54h 27a 27 27, 0, 0, 0, 0 -54" transform="rotate(0,1270,406)"/><path d="M 1243 487v 54h 27a 27 27, 0, 0, 0, 0 -54" transform="rotate(0,1270,514)"/><path d="M 1243 595v 54h 27a 27 27, 0, 0, 0, 0 -54" transform="rotate(0,1270,622)"/><rect x="1243" y="703" width="54" height="54" transform="rotate(0,1270,730)"/><path d="M 1243 811v 54h 27a 27 27, 0, 0, 0, 0 -54" transform="rotate(180,1270,838)"/><path d="M 1243 919v 54h 54v -27a 27 27, 0, 0, 0, -27 -27" transform="rotate(-90,1270,946)"/><path d="M 1243 973v 54h 27a 27 27, 0, 0, 0, 0 -54" transform="rotate(90,1270,1000)"/><path d="M 1243 1189v 54h 27a 27 27, 0, 0, 0, 0 -54" transform="rotate(-90,1270,1216)"/><path d="M 1243 1243v 54h 54v -27a 27 27, 0, 0, 0, -27 -27" transform="rotate(90,1270,1270)"/><circle cx="1270" cy="1486" r="27" transform="rotate(0,1270,1486)"/><path d="M 1243 1729v 54h 27a 27 27, 0, 0, 0, 0 -54" transform="rotate(-90,1270,1756)"/><rect x="1243" y="1783" width="54" height="54" transform="rotate(0,1270,1810)"/><path d="M 1243 1837v 54h 54v -27a 27 27, 0, 0, 0, -27 -27" transform="rotate(90,1270,1864)"/><rect x="1297" y="109" width="54" height="54" transform="rotate(0,1324,136)"/><path d="M 1297 217v 54h 54v -27a 27 27, 0, 0, 0, -27 -27" transform="rotate(-90,1324,244)"/><rect x="1297" y="271" width="54" height="54" transform="rotate(0,1324,298)"/><path d="M 1297 325v 54h 54v -27a 27 27, 0, 0, 0, -27 -27" transform="rotate(180,1324,352)"/><circle cx="1324" cy="460" r="27" transform="rotate(0,1324,460)"/><path d="M 1297 649v 54h 27a 27 27, 0, 0, 0, 0 -54" transform="rotate(-90,1324,676)"/><rect x="1297" y="703" width="54" height="54" transform="rotate(0,1324,730)"/><path d="M 1297 811v 54h 54v -27a 27 27, 0, 0, 0, -27 -27" transform="rotate(0,1324,838)"/><rect x="1297" y="865" width="54" height="54" transform="rotate(0,1324,892)"/><rect x="1297" y="919" width="54" height="54" transform="rotate(0,1324,946)"/><circle cx="1324" cy="1108" r="27" transform="rotate(0,1324,1108)"/><path d="M 1297 1297v 54h 54v -27a 27 27, 0, 0, 0, -27 -27" transform="rotate(-90,1324,1324)"/><rect x="1297" y="1351" width="54" height="54" transform="rotate(0,1324,1378)"/><path d="M 1297 1405v 54h 27a 27 27, 0, 0, 0, 0 -54" transform="rotate(90,1324,1432)"/><path d="M 1297 1567v 54h 27a 27 27, 0, 0, 0, 0 -54" transform="rotate(-90,1324,1594)"/><path d="M 1297 1621v 54h 27a 27 27, 0, 0, 0, 0 -54" transform="rotate(90,1324,1648)"/><path d="M 1297 1783v 54h 27a 27 27, 0, 0, 0, 0 -54" transform="rotate(0,1324,1810)"/><rect x="1351" y="109" width="54" height="54" transform="rotate(0,1378,136)"/><rect x="1351" y="217" width="54" height="54" transform="rotate(0,1378,244)"/><rect x="1351" y="271" width="54" height="54" transform="rotate(0,1378,298)"/><rect x="1351" y="325" width="54" height="54" transform="rotate(0,1378,352)"/><path d="M 1351 541v 54h 27a 27 27, 0, 0, 0, 0 -54" transform="rotate(180,1378,568)"/><rect x="1351" y="703" width="54" height="54" transform="rotate(0,1378,730)"/><path d="M 1351 757v 54h 54v -27a 27 27, 0, 0, 0, -27 -27" transform="rotate(180,1378,784)"/><path d="M 1351 919v 54h 54v -27a 27 27, 0, 0, 0, -27 -27" transform="rotate(0,1378,946)"/><path d="M 1351 973v 54h 27a 27 27, 0, 0, 0, 0 -54" transform="rotate(90,1378,1000)"/><path d="M 1351 1135v 54h 27a 27 27, 0, 0, 0, 0 -54" transform="rotate(-90,1378,1162)"/><rect x="1351" y="1189" width="54" height="54" transform="rotate(0,1378,1216)"/><rect x="1351" y="1243" width="54" height="54" transform="rotate(0,1378,1270)"/><rect x="1351" y="1297" width="54" height="54" transform="rotate(0,1378,1324)"/><rect x="1351" y="1351" width="54" height="54" transform="rotate(0,1378,1378)"/><path d="M 1351 1675v 54h 27a 27 27, 0, 0, 0, 0 -54" transform="rotate(-90,1378,1702)"/><path d="M 1351 1729v 54h 27a 27 27, 0, 0, 0, 0 -54" transform="rotate(90,1378,1756)"/><path d="M 1405 109v 54h 27a 27 27, 0, 0, 0, 0 -54" transform="rotate(0,1432,136)"/><path d="M 1405 217v 54h 27a 27 27, 0, 0, 0, 0 -54" transform="rotate(0,1432,244)"/><path d="M 1405 325v 54h 54v -27a 27 27, 0, 0, 0, -27 -27" transform="rotate(0,1432,352)"/><rect x="1405" y="379" width="54" height="54" transform="rotate(0,1432,406)"/><path d="M 1405 433v 54h 27a 27 27, 0, 0, 0, 0 -54" transform="rotate(90,1432,460)"/><rect x="1405" y="541" width="54" height="54" transform="rotate(0,1432,568)"/><path d="M 1405 595v 54h 27a 27 27, 0, 0, 0, 0 -54" transform="rotate(90,1432,622)"/><path d="M 1405 703v 54h 54v -27a 27 27, 0, 0, 0, -27 -27" transform="rotate(0,1432,730)"/><rect x="1405" y="757" width="54" height="54" transform="rotate(0,1432,784)"/><path d="M 1405 865v 54h 27a 27 27, 0, 0, 0, 0 -54" transform="rotate(180,1432,892)"/><circle cx="1432" cy="1108" r="27" transform="rotate(0,1432,1108)"/><path d="M 1405 1189v 54h 27a 27 27, 0, 0, 0, 0 -54" transform="rotate(0,1432,1216)"/><path d="M 1405 1297v 54h 54v -27a 27 27, 0, 0, 0, -27 -27" transform="rotate(0,1432,1324)"/><rect x="1405" y="1351" width="54" height="54" transform="rotate(0,1432,1378)"/><rect x="1405" y="1405" width="54" height="54" transform="rotate(0,1432,1432)"/><rect x="1405" y="1459" width="54" height="54" transform="rotate(0,1432,1486)"/><rect x="1405" y="1513" width="54" height="54" transform="rotate(0,1432,1540)"/><rect x="1405" y="1567" width="54" height="54" transform="rotate(0,1432,1594)"/><path d="M 1405 1621v 54h 54v -27a 27 27, 0, 0, 0, -27 -27" transform="rotate(180,1432,1648)"/><path d="M 1405 1783v 54h 27a 27 27, 0, 0, 0, 0 -54" transform="rotate(180,1432,1810)"/><path d="M 1459 541v 54h 27a 27 27, 0, 0, 0, 0 -54" transform="rotate(0,1486,568)"/><circle cx="1486" cy="676" r="27" transform="rotate(0,1486,676)"/><rect x="1459" y="757" width="54" height="54" transform="rotate(0,1486,784)"/><path d="M 1459 865v 54h 54v -27a 27 27, 0, 0, 0, -27 -27" transform="rotate(0,1486,892)"/><rect x="1459" y="919" width="54" height="54" transform="rotate(0,1486,946)"/><path d="M 1459 973v 54h 27a 27 27, 0, 0, 0, 0 -54" transform="rotate(90,1486,1000)"/><path d="M 1459 1243v 54h 27a 27 27, 0, 0, 0, 0 -54" transform="rotate(180,1486,1270)"/><rect x="1459" y="1405" width="54" height="54" transform="rotate(0,1486,1432)"/><rect x="1459" y="1621" width="54" height="54" transform="rotate(0,1486,1648)"/><path d="M 1459 1729v 54h 27a 27 27, 0, 0, 0, 0 -54" transform="rotate(-90,1486,1756)"/><rect x="1459" y="1783" width="54" height="54" transform="rotate(0,1486,1810)"/><path d="M 1459 1837v 54h 27a 27 27, 0, 0, 0, 0 -54" transform="rotate(90,1486,1864)"/><path d="M 1513 595v 54h 27a 27 27, 0, 0, 0, 0 -54" transform="rotate(180,1540,622)"/><path d="M 1513 703v 54h 54v -27a 27 27, 0, 0, 0, -27 -27" transform="rotate(-90,1540,730)"/><rect x="1513" y="757" width="54" height="54" transform="rotate(0,1540,784)"/><path d="M 1513 811v 54h 27a 27 27, 0, 0, 0, 0 -54" transform="rotate(90,1540,838)"/><path d="M 1513 919v 54h 27a 27 27, 0, 0, 0, 0 -54" transform="rotate(0,1540,946)"/><path d="M 1513 1189v 54h 54v -27a 27 27, 0, 0, 0, -27 -27" transform="rotate(-90,1540,1216)"/><rect x="1513" y="1243" width="54" height="54" transform="rotate(0,1540,1270)"/><path d="M 1513 1351v 54h 54v -27a 27 27, 0, 0, 0, -27 -27" transform="rotate(-90,1540,1378)"/><rect x="1513" y="1405" width="54" height="54" transform="rotate(0,1540,1432)"/><circle cx="1540" cy="1540" r="27" transform="rotate(0,1540,1540)"/><rect x="1513" y="1621" width="54" height="54" transform="rotate(0,1540,1648)"/><rect x="1513" y="1783" width="54" height="54" transform="rotate(0,1540,1810)"/><path d="M 1567 595v 54h 54v -27a 27 27, 0, 0, 0, -27 -27" transform="rotate(0,1594,622)"/><rect x="1567" y="649" width="54" height="54" transform="rotate(0,1594,676)"/><rect x="1567" y="703" width="54" height="54" transform="rotate(0,1594,730)"/><rect x="1567" y="757" width="54" height="54" transform="rotate(0,1594,784)"/><path d="M 1567 865v 54h 27a 27 27, 0, 0, 0, 0 -54" transform="rotate(180,1594,892)"/><circle cx="1594" cy="1000" r="27" transform="rotate(0,1594,1000)"/><path d="M 1567 1135v 54h 54v -27a 27 27, 0, 0, 0, -27 -27" transform="rotate(-90,1594,1162)"/><rect x="1567" y="1189" width="54" height="54" transform="rotate(0,1594,1216)"/><rect x="1567" y="1243" width="54" height="54" transform="rotate(0,1594,1270)"/><rect x="1567" y="1297" width="54" height="54" transform="rotate(0,1594,1324)"/><rect x="1567" y="1351" width="54" height="54" transform="rotate(0,1594,1378)"/><rect x="1567" y="1405" width="54" height="54" transform="rotate(0,1594,1432)"/><rect x="1567" y="1621" width="54" height="54" transform="rotate(0,1594,1648)"/><rect x="1567" y="1675" width="54" height="54" transform="rotate(0,1594,1702)"/><rect x="1567" y="1729" width="54" height="54" transform="rotate(0,1594,1756)"/><rect x="1567" y="1783" width="54" height="54" transform="rotate(0,1594,1810)"/><path d="M 1567 1837v 54h 54v -27a 27 27, 0, 0, 0, -27 -27" transform="rotate(180,1594,1864)"/><path d="M 1621 541v 54h 27a 27 27, 0, 0, 0, 0 -54" transform="rotate(180,1648,568)"/><path d="M 1621 649v 54h 27a 27 27, 0, 0, 0, 0 -54" transform="rotate(0,1648,676)"/><path d="M 1621 757v 54h 54v -27a 27 27, 0, 0, 0, -27 -27" transform="rotate(0,1648,784)"/><rect x="1621" y="811" width="54" height="54" transform="rotate(0,1648,838)"/><rect x="1621" y="865" width="54" height="54" transform="rotate(0,1648,892)"/><path d="M 1621 919v 54h 27a 27 27, 0, 0, 0, 0 -54" transform="rotate(90,1648,946)"/><path d="M 1621 1081v 54h 27a 27 27, 0, 0, 0, 0 -54" transform="rotate(-90,1648,1108)"/><rect x="1621" y="1135" width="54" height="54" transform="rotate(0,1648,1162)"/><rect x="1621" y="1189" width="54" height="54" transform="rotate(0,1648,1216)"/><path d="M 1621 1243v 54h 54v -27a 27 27, 0, 0, 0, -27 -27" transform="rotate(90,1648,1270)"/><rect x="1621" y="1405" width="54" height="54" transform="rotate(0,1648,1432)"/><rect x="1621" y="1459" width="54" height="54" transform="rotate(0,1648,1486)"/><rect x="1621" y="1513" width="54" height="54" transform="rotate(0,1648,1540)"/><rect x="1621" y="1567" width="54" height="54" transform="rotate(0,1648,1594)"/><rect x="1621" y="1621" width="54" height="54" transform="rotate(0,1648,1648)"/><rect x="1621" y="1783" width="54" height="54" transform="rotate(0,1648,1810)"/><path d="M 1621 1837v 54h 54v -27a 27 27, 0, 0, 0, -27 -27" transform="rotate(90,1648,1864)"/><rect x="1675" y="541" width="54" height="54" transform="rotate(0,1702,568)"/><path d="M 1675 595v 54h 27a 27 27, 0, 0, 0, 0 -54" transform="rotate(90,1702,622)"/><path d="M 1675 865v 54h 27a 27 27, 0, 0, 0, 0 -54" transform="rotate(0,1702,892)"/><circle cx="1702" cy="1054" r="27" transform="rotate(0,1702,1054)"/><rect x="1675" y="1135" width="54" height="54" transform="rotate(0,1702,1162)"/><path d="M 1675 1189v 54h 54v -27a 27 27, 0, 0, 0, -27 -27" transform="rotate(90,1702,1216)"/><path d="M 1675 1297v 54h 27a 27 27, 0, 0, 0, 0 -54" transform="rotate(180,1702,1324)"/><path d="M 1675 1405v 54h 54v -27a 27 27, 0, 0, 0, -27 -27" transform="rotate(0,1702,1432)"/><rect x="1675" y="1459" width="54" height="54" transform="rotate(0,1702,1486)"/><path d="M 1675 1621v 54h 27a 27 27, 0, 0, 0, 0 -54" transform="rotate(0,1702,1648)"/><path d="M 1675 1729v 54h 54v -27a 27 27, 0, 0, 0, -27 -27" transform="rotate(-90,1702,1756)"/><path d="M 1675 1783v 54h 54v -27a 27 27, 0, 0, 0, -27 -27" transform="rotate(90,1702,1810)"/><path d="M 1729 541v 54h 27a 27 27, 0, 0, 0, 0 -54" transform="rotate(0,1756,568)"/><path d="M 1729 703v 54h 54v -27a 27 27, 0, 0, 0, -27 -27" transform="rotate(-90,1756,730)"/><path d="M 1729 757v 54h 27a 27 27, 0, 0, 0, 0 -54" transform="rotate(90,1756,784)"/><path d="M 1729 1081v 54h 27a 27 27, 0, 0, 0, 0 -54" transform="rotate(-90,1756,1108)"/><rect x="1729" y="1135" width="54" height="54" transform="rotate(0,1756,1162)"/><path d="M 1729 1297v 54h 27a 27 27, 0, 0, 0, 0 -54" transform="rotate(0,1756,1324)"/><rect x="1729" y="1459" width="54" height="54" transform="rotate(0,1756,1486)"/><path d="M 1729 1513v 54h 54v -27a 27 27, 0, 0, 0, -27 -27" transform="rotate(180,1756,1540)"/><path d="M 1729 1675v 54h 27a 27 27, 0, 0, 0, 0 -54" transform="rotate(-90,1756,1702)"/><rect x="1729" y="1729" width="54" height="54" transform="rotate(0,1756,1756)"/><path d="M 1783 595v 54h 54v -27a 27 27, 0, 0, 0, -27 -27" transform="rotate(-90,1810,622)"/><rect x="1783" y="649" width="54" height="54" transform="rotate(0,1810,676)"/><path d="M 1783 703v 54h 54v -27a 27 27, 0, 0, 0, -27 -27" transform="rotate(90,1810,730)"/><path d="M 1783 811v 54h 54v -27a 27 27, 0, 0, 0, -27 -27" transform="rotate(-90,1810,838)"/><rect x="1783" y="865" width="54" height="54" transform="rotate(0,1810,892)"/><rect x="1783" y="919" width="54" height="54" transform="rotate(0,1810,946)"/><rect x="1783" y="973" width="54" height="54" transform="rotate(0,1810,1000)"/><path d="M 1783 1027v 54h 27a 27 27, 0, 0, 0, 0 -54" transform="rotate(90,1810,1054)"/><path d="M 1783 1135v 54h 27a 27 27, 0, 0, 0, 0 -54" transform="rotate(0,1810,1162)"/><path d="M 1783 1459v 54h 54v -27a 27 27, 0, 0, 0, -27 -27" transform="rotate(0,1810,1486)"/><rect x="1783" y="1513" width="54" height="54" transform="rotate(0,1810,1540)"/><path d="M 1783 1567v 54h 27a 27 27, 0, 0, 0, 0 -54" transform="rotate(90,1810,1594)"/><rect x="1783" y="1729" width="54" height="54" transform="rotate(0,1810,1756)"/><path d="M 1837 595v 54h 54v -27a 27 27, 0, 0, 0, -27 -27" transform="rotate(0,1864,622)"/><path d="M 1837 649v 54h 54v -27a 27 27, 0, 0, 0, -27 -27" transform="rotate(90,1864,676)"/><path d="M 1837 757v 54h 27a 27 27, 0, 0, 0, 0 -54" transform="rotate(-90,1864,784)"/><path d="M 1837 811v 54h 54v -27a 27 27, 0, 0, 0, -27 -27" transform="rotate(90,1864,838)"/><path d="M 1837 1243v 54h 27a 27 27, 0, 0, 0, 0 -54" transform="rotate(-90,1864,1270)"/><rect x="1837" y="1297" width="54" height="54" transform="rotate(0,1864,1324)"/><rect x="1837" y="1351" width="54" height="54" transform="rotate(0,1864,1378)"/><path d="M 1837 1405v 54h 27a 27 27, 0, 0, 0, 0 -54" transform="rotate(90,1864,1432)"/><path d="M 1837 1513v 54h 27a 27 27, 0, 0, 0, 0 -54" transform="rotate(0,1864,1540)"/><path d="M 1837 1675v 54h 27a 27 27, 0, 0, 0, 0 -54" transform="rotate(-90,1864,1702)"/><rect x="1837" y="1729" width="54" height="54" transform="rotate(0,1864,1756)"/><path d="M 1837 1783v 54h 27a 27 27, 0, 0, 0, 0 -54" transform="rotate(90,1864,1810)"/></clipPath><clipPath id="clip-path-corners-square-color-0-0"><path d="M 109 109v 54h 54v -27a 27 27, 0, 0, 0, -27 -27" transform="rotate(-90,136,136)"/><rect x="109" y="163" width="54" height="54" transform="rotate(0,136,190)"/><rect x="109" y="217" width="54" height="54" transform="rotate(0,136,244)"/><rect x="109" y="271" width="54" height="54" transform="rotate(0,136,298)"/><rect x="109" y="325" width="54" height="54" transform="rotate(0,136,352)"/><rect x="109" y="379" width="54" height="54" transform="rotate(0,136,406)"/><path d="M 109 433v 54h 54v -27a 27 27, 0, 0, 0, -27 -27" transform="rotate(180,136,460)"/><rect x="163" y="109" width="54" height="54" transform="rotate(0,190,136)"/><rect x="163" y="433" width="54" height="54" transform="rotate(0,190,460)"/><rect x="217" y="109" width="54" height="54" transform="rotate(0,244,136)"/><rect x="217" y="433" width="54" height="54" transform="rotate(0,244,460)"/><rect x="271" y="109" width="54" height="54" transform="rotate(0,298,136)"/><rect x="271" y="433" width="54" height="54" transform="rotate(0,298,460)"/><rect x="325" y="109" width="54" height="54" transform="rotate(0,352,136)"/><rect x="325" y="433" width="54" height="54" transform="rotate(0,352,460)"/><rect x="379" y="109" width="54" height="54" transform="rotate(0,406,136)"/><rect x="379" y="433" width="54" height="54" transform="rotate(0,406,460)"/><path d="M 433 109v 54h 54v -27a 27 27, 0, 0, 0, -27 -27" transform="rotate(0,460,136)"/><rect x="433" y="163" width="54" height="54" transform="rotate(0,460,190)"/><rect x="433" y="217" width="54" height="54" transform="rotate(0,460,244)"/><rect x="433" y="271" width="54" height="54" transform="rotate(0,460,298)"/><rect x="433" y="325" width="54" height="54" transform="rotate(0,460,352)"/><rect x="433" y="379" width="54" height="54" transform="rotate(0,460,406)"/><path d="M 433 433v 54h 54v -27a 27 27, 0, 0, 0, -27 -27" transform="rotate(90,460,460)"/></clipPath><clipPath id="clip-path-corners-dot-color-0-0"><path d="M 217 217v 54h 54v -27a 27 27, 0, 0, 0, -27 -27" transform="rotate(-90,244,244)"/><rect x="217" y="271" width="54" height="54" transform="rotate(0,244,298)"/><path d="M 217 325v 54h 54v -27a 27 27, 0, 0, 0, -27 -27" transform="rotate(180,244,352)"/><rect x="271" y="217" width="54" height="54" transform="rotate(0,298,244)"/><rect x="271" y="271" width="54" height="54" transform="rotate(0,298,298)"/><rect x="271" y="325" width="54" height="54" transform="rotate(0,298,352)"/><path d="M 325 217v 54h 54v -27a 27 27, 0, 0, 0, -27 -27" transform="rotate(0,352,244)"/><rect x="325" y="271" width="54" height="54" transform="rotate(0,352,298)"/><path d="M 325 325v 54h 54v -27a 27 27, 0, 0, 0, -27 -27" transform="rotate(90,352,352)"/></clipPath><clipPath id="clip-path-corners-square-color-1-0"><path d="M 1513 109v 54h 54v -27a 27 27, 0, 0, 0, -27 -27" transform="rotate(-90,1540,136)"/><rect x="1513" y="163" width="54" height="54" transform="rotate(0,1540,190)"/><rect x="1513" y="217" width="54" height="54" transform="rotate(0,1540,244)"/><rect x="1513" y="271" width="54" height="54" transform="rotate(0,1540,298)"/><rect x="1513" y="325" width="54" height="54" transform="rotate(0,1540,352)"/><rect x="1513" y="379" width="54" height="54" transform="rotate(0,1540,406)"/><path d="M 1513 433v 54h 54v -27a 27 27, 0, 0, 0, -27 -27" transform="rotate(180,1540,460)"/><rect x="1567" y="109" width="54" height="54" transform="rotate(0,1594,136)"/><rect x="1567" y="433" width="54" height="54" transform="rotate(0,1594,460)"/><rect x="1621" y="109" width="54" height="54" transform="rotate(0,1648,136)"/><rect x="1621" y="433" width="54" height="54" transform="rotate(0,1648,460)"/><rect x="1675" y="109" width="54" height="54" transform="rotate(0,1702,136)"/><rect x="1675" y="433" width="54" height="54" transform="rotate(0,1702,460)"/><rect x="1729" y="109" width="54" height="54" transform="rotate(0,1756,136)"/><rect x="1729" y="433" width="54" height="54" transform="rotate(0,1756,460)"/><rect x="1783" y="109" width="54" height="54" transform="rotate(0,1810,136)"/><rect x="1783" y="433" width="54" height="54" transform="rotate(0,1810,460)"/><path d="M 1837 109v 54h 54v -27a 27 27, 0, 0, 0, -27 -27" transform="rotate(0,1864,136)"/><rect x="1837" y="163" width="54" height="54" transform="rotate(0,1864,190)"/><rect x="1837" y="217" width="54" height="54" transform="rotate(0,1864,244)"/><rect x="1837" y="271" width="54" height="54" transform="rotate(0,1864,298)"/><rect x="1837" y="325" width="54" height="54" transform="rotate(0,1864,352)"/><rect x="1837" y="379" width="54" height="54" transform="rotate(0,1864,406)"/><path d="M 1837 433v 54h 54v -27a 27 27, 0, 0, 0, -27 -27" transform="rotate(90,1864,460)"/></clipPath><clipPath id="clip-path-corners-dot-color-1-0"><path d="M 1621 217v 54h 54v -27a 27 27, 0, 0, 0, -27 -27" transform="rotate(-90,1648,244)"/><rect x="1621" y="271" width="54" height="54" transform="rotate(0,1648,298)"/><path d="M 1621 325v 54h 54v -27a 27 27, 0, 0, 0, -27 -27" transform="rotate(180,1648,352)"/><rect x="1675" y="217" width="54" height="54" transform="rotate(0,1702,244)"/><rect x="1675" y="271" width="54" height="54" transform="rotate(0,1702,298)"/><rect x="1675" y="325" width="54" height="54" transform="rotate(0,1702,352)"/><path d="M 1729 217v 54h 54v -27a 27 27, 0, 0, 0, -27 -27" transform="rotate(0,1756,244)"/><rect x="1729" y="271" width="54" height="54" transform="rotate(0,1756,298)"/><path d="M 1729 325v 54h 54v -27a 27 27, 0, 0, 0, -27 -27" transform="rotate(90,1756,352)"/></clipPath><clipPath id="clip-path-corners-square-color-0-1"><path d="M 109 1513v 54h 54v -27a 27 27, 0, 0, 0, -27 -27" transform="rotate(-90,136,1540)"/><rect x="109" y="1567" width="54" height="54" transform="rotate(0,136,1594)"/><rect x="109" y="1621" width="54" height="54" transform="rotate(0,136,1648)"/><rect x="109" y="1675" width="54" height="54" transform="rotate(0,136,1702)"/><rect x="109" y="1729" width="54" height="54" transform="rotate(0,136,1756)"/><rect x="109" y="1783" width="54" height="54" transform="rotate(0,136,1810)"/><path d="M 109 1837v 54h 54v -27a 27 27, 0, 0, 0, -27 -27" transform="rotate(180,136,1864)"/><rect x="163" y="1513" width="54" height="54" transform="rotate(0,190,1540)"/><rect x="163" y="1837" width="54" height="54" transform="rotate(0,190,1864)"/><rect x="217" y="1513" width="54" height="54" transform="rotate(0,244,1540)"/><rect x="217" y="1837" width="54" height="54" transform="rotate(0,244,1864)"/><rect x="271" y="1513" width="54" height="54" transform="rotate(0,298,1540)"/><rect x="271" y="1837" width="54" height="54" transform="rotate(0,298,1864)"/><rect x="325" y="1513" width="54" height="54" transform="rotate(0,352,1540)"/><rect x="325" y="1837" width="54" height="54" transform="rotate(0,352,1864)"/><rect x="379" y="1513" width="54" height="54" transform="rotate(0,406,1540)"/><rect x="379" y="1837" width="54" height="54" transform="rotate(0,406,1864)"/><path d="M 433 1513v 54h 54v -27a 27 27, 0, 0, 0, -27 -27" transform="rotate(0,460,1540)"/><rect x="433" y="1567" width="54" height="54" transform="rotate(0,460,1594)"/><rect x="433" y="1621" width="54" height="54" transform="rotate(0,460,1648)"/><rect x="433" y="1675" width="54" height="54" transform="rotate(0,460,1702)"/><rect x="433" y="1729" width="54" height="54" transform="rotate(0,460,1756)"/><rect x="433" y="1783" width="54" height="54" transform="rotate(0,460,1810)"/><path d="M 433 1837v 54h 54v -27a 27 27, 0, 0, 0, -27 -27" transform="rotate(90,460,1864)"/></clipPath><clipPath id="clip-path-corners-dot-color-0-1"><path d="M 217 1621v 54h 54v -27a 27 27, 0, 0, 0, -27 -27" transform="rotate(-90,244,1648)"/><rect x="217" y="1675" width="54" height="54" transform="rotate(0,244,1702)"/><path d="M 217 1729v 54h 54v -27a 27 27, 0, 0, 0, -27 -27" transform="rotate(180,244,1756)"/><rect x="271" y="1621" width="54" height="54" transform="rotate(0,298,1648)"/><rect x="271" y="1675" width="54" height="54" transform="rotate(0,298,1702)"/><rect x="271" y="1729" width="54" height="54" transform="rotate(0,298,1756)"/><path d="M 325 1621v 54h 54v -27a 27 27, 0, 0, 0, -27 -27" transform="rotate(0,352,1648)"/><rect x="325" y="1675" width="54" height="54" transform="rotate(0,352,1702)"/><path d="M 325 1729v 54h 54v -27a 27 27, 0, 0, 0, -27 -27" transform="rotate(90,352,1756)"/></clipPath></defs><rect x="0" y="0" height="2000" width="2000" clip-path="url('#clip-path-background-color')" fill="#ffffff"/><rect x="109" y="109" height="1782" width="1782" clip-path="url('#clip-path-dot-color')" fill="#000000"/><rect x="109" y="109" height="378" width="378" clip-path="url('#clip-path-corners-square-color-0-0')" fill="#000000"/><rect x="217" y="217" height="162" width="162" clip-path="url('#clip-path-corners-dot-color-0-0')" fill="#000000"/><rect x="1513" y="109" height="378" width="378" clip-path="url('#clip-path-corners-square-color-1-0')" fill="#000000"/><rect x="1621" y="217" height="162" width="162" clip-path="url('#clip-path-corners-dot-color-1-0')" fill="#000000"/><rect x="109" y="1513" height="378" width="378" clip-path="url('#clip-path-corners-square-color-0-1')" fill="#000000"/><rect x="217" y="1621" height="162" width="162" clip-path="url('#clip-path-corners-dot-color-0-1')" fill="#000000"/></svg>