<svg width="30" height="30" viewBox="0 0 45 45" fill="none" xmlns="http://www.w3.org/2000/svg">
<path d="M2.13997 13.8C1.88997 14.4 1.65997 15.01 1.46997 15.64H4.89997L2.13997 13.8Z" fill="#01247D"/>
<path d="M42.4999 30.63C42.7499 30.02 42.9799 29.4 43.1799 28.76H39.6899L42.4999 30.63Z" fill="#01247D"/>
<path d="M6.80994 37.5999C9.27994 40.0899 12.3399 41.98 15.7699 43.06V31.63L6.80994 37.5999Z" fill="#01247D"/>
<path d="M15.7699 1.33994C12.3299 2.41994 9.26992 4.31992 6.78992 6.81992L15.7699 12.81V1.33994Z" fill="#01247D"/>
<path d="M43.19 15.64C42.99 15.02 42.77 14.4 42.52 13.8L39.76 15.64H43.19Z" fill="#01247D"/>
<path d="M28.89 43.06C32.32 41.98 35.38 40.0899 37.84 37.5999L28.89 31.63V43.06Z" fill="#01247D"/>
<path d="M1.46997 28.76C1.66997 29.4 1.89997 30.02 2.14997 30.63L4.95997 28.76H1.46997Z" fill="#01247D"/>
<path d="M37.86 6.81992C35.39 4.31992 32.32 2.41994 28.88 1.33994V12.81L37.86 6.81992Z" fill="#01247D"/>
<path d="M43.8499 26.02H26.1599V43.7099C27.0899 43.5399 27.9999 43.33 28.8899 43.05V31.62L37.8399 37.5899C38.8499 36.5699 39.7599 35.45 40.5599 34.24L32.2999 28.74H37.4899L41.9899 31.74C42.1699 31.37 42.3399 30.99 42.4999 30.62L39.6899 28.75H43.1799C43.4599 27.87 43.6799 26.96 43.8499 26.02Z" fill="white"/>
<path d="M15.7699 1.33994V12.81L6.78994 6.81992C5.79994 7.81992 4.90994 8.89992 4.12994 10.0699L12.4999 15.63H7.30994L2.69994 12.56C2.49994 12.96 2.31994 13.37 2.13994 13.79L4.89994 15.63H1.46994C1.18994 16.52 0.969937 17.43 0.809937 18.36H18.4999V0.660004C17.5699 0.840004 16.6599 1.05994 15.7699 1.33994Z" fill="white"/>
<path d="M0.809937 26.02C0.979937 26.95 1.18994 27.86 1.46994 28.75H4.95994L2.14994 30.62C2.67994 31.9 3.33994 33.11 4.08994 34.25L12.3599 28.75H15.7699V29.9399L5.83994 36.54C6.14994 36.9 6.47994 37.2499 6.80994 37.5899L15.7699 31.62V43.05C16.6599 43.33 17.5699 43.5499 18.4999 43.7099V26.02H0.809937Z" fill="white"/>
<path d="M43.19 15.64H39.76L42.52 13.8C41.97 12.48 41.3 11.23 40.51 10.06L32.12 15.64H28.89V14.3399L38.75 7.78C38.46 7.46 38.17 7.13993 37.86 6.82993L28.88 12.8199V1.34995C27.99 1.06995 27.08 0.849911 26.15 0.689911V18.39H43.84C43.68 17.44 43.46 16.53 43.19 15.64Z" fill="white"/>
<path d="M43.85 18.37H26.16V0.670013C24.92 0.450013 23.64 0.329926 22.33 0.329926C21.02 0.329926 19.75 0.450013 18.51 0.670013V18.37H0.809967C0.589967 19.61 0.469971 20.8899 0.469971 22.1999C0.469971 23.4999 0.589967 24.78 0.809967 26.03H18.5V43.7199C19.74 43.9399 21.02 44.06 22.32 44.06C23.62 44.06 24.9 43.9399 26.15 43.7199V26.03H43.84C44.06 24.79 44.18 23.5099 44.18 22.1999C44.19 20.8899 44.07 19.62 43.85 18.37Z" fill="#CF142B"/>
<path d="M32.2999 28.76L40.5599 34.26C41.0899 33.46 41.5699 32.63 41.9899 31.76L37.4899 28.76H32.2999Z" fill="#CF142B"/>
<path d="M28.89 15.64H32.12L40.51 10.06C39.97 9.26003 39.39 8.5 38.75 7.78L28.89 14.3399V15.64Z" fill="#CF142B"/>
<path d="M15.77 28.76H12.36L4.08997 34.26C4.61997 35.06 5.20997 35.83 5.83997 36.55L15.77 29.9499V28.76Z" fill="#CF142B"/>
<path d="M12.4999 15.64L4.12994 10.0799C3.59994 10.8799 3.11994 11.7099 2.68994 12.5799L7.29994 15.65H12.4999V15.64Z" fill="#CF142B"/>
</svg>
